<svg id="Group_754" data-name="Group 754" xmlns="http://www.w3.org/2000/svg" width="37.213" height="37.213" viewBox="0 0 37.213 37.213">
  <g id="Group_751" data-name="Group 751">
    <g id="Ellipse_39" data-name="Ellipse 39" fill="none" stroke="#fff" stroke-width="2">
      <circle cx="18.606" cy="18.606" r="18.606" stroke="none"/>
      <circle cx="18.606" cy="18.606" r="17.606" fill="none"/>
    </g>
    <path id="_5f12c74feab158655feb4b26acc65a7d" data-name="5f12c74feab158655feb4b26acc65a7d" d="M12.058,2A10.057,10.057,0,0,0,2,12.057a9.947,9.947,0,0,0,2.273,6.366L2.262,20.435a.981.981,0,0,0,.744,1.68h9.052A10.057,10.057,0,0,0,12.058,2Zm0,18.1H5.43l.935-.935a1.006,1.006,0,0,0,0-1.418A8.046,8.046,0,1,1,12.058,20.1Zm5.029-9.052H7.029a1.006,1.006,0,0,0,0,2.011H17.086a1.006,1.006,0,1,0,0-2.011Zm-2.011,4.023H9.04a1.006,1.006,0,1,0,0,2.011h6.034a1.006,1.006,0,1,0,0-2.011ZM9.04,9.04h6.034a1.006,1.006,0,1,0,0-2.011H9.04a1.006,1.006,0,1,0,0,2.011Z" transform="translate(6.562 6.317)" fill="#fff"/>
  </g>
</svg>
