<svg id="Group_1026" data-name="Group 1026" xmlns="http://www.w3.org/2000/svg" width="191.924" height="195.624" viewBox="0 0 191.924 195.624">
  <g id="Group_882" data-name="Group 882">
    <g id="Group_876" data-name="Group 876">
      <path id="Path_2298" data-name="Path 2298" d="M833.024,376.472c10.84,10.332,24.361,17.433,38.6,21.851a139.482,139.482,0,0,0,22.875,4.938c8.262,1.1,16.7,1.769,25.016.9,14.769-1.542,28.576-8.684,39.953-18q1.816-1.488,3.554-3.067A66.566,66.566,0,0,0,978.1,367.039,125.67,125.67,0,0,0,989.431,346.4c6.767-15.408,9.691-32.2,7.453-48.955a97.011,97.011,0,0,0-6.9-24.375q-5.018-12.108-10.095-24.193c-2.966-7.028-6.4-13.7-11.831-19.162a57.669,57.669,0,0,0-16.53-11.33,94.668,94.668,0,0,0-19.367-6.47,108.235,108.235,0,0,0-24.682-2.975,77.312,77.312,0,0,0-24.426,4.371,107.28,107.28,0,0,0-40.528,14.863,60.176,60.176,0,0,0-16.58,15c-4.635,6.327-7.921,13.638-10.83,20.886-5.722,14.253-9.349,29.566-9.415,44.975a83.51,83.51,0,0,0,6.669,33.6C815.813,355.586,823.369,367.268,833.024,376.472Zm-18.9-37.1c-1.739-7.908-1.661-16.058-1.17-24.1q.776-12.729,2.556-25.378c1.1-7.834,2.122-16,5.3-23.315a45,45,0,0,1,7.689-11.662c-.094.15-.192.3-.284.448a77.818,77.818,0,0,0-7.975,17.449,100.81,100.81,0,0,0-4.081,24.041,208.364,208.364,0,0,0,.007,23.713,144.943,144.943,0,0,0,2.554,21.11,91.621,91.621,0,0,0,4.045,14.165q-2.369-3.309-4.417-6.825a70.985,70.985,0,0,1-3.608-7.129Q814.409,340.638,814.128,339.371ZM887.258,215.2a141.707,141.707,0,0,1,44,1.553c7.1,1.339,14.4,2.932,21.013,5.919a35.469,35.469,0,0,1,9.242,5.866,41.024,41.024,0,0,1,6.937,8.407c4.057,6.325,7.273,13.266,10.46,20.059,1.9,4.048,3.7,8.145,5.348,12.3q-.683-1.313-1.385-2.613a127.99,127.99,0,0,0-13.037-20.245,79.451,79.451,0,0,0-35.1-24.191,95.2,95.2,0,0,0-42.789-4.416c.548-.762.247-2.075-.927-1.972a77.576,77.576,0,0,0-14.533,2.71q3.611-1.6,7.338-2.885C884.965,215.511,886.11,215.343,887.258,215.2Zm72.529,167.144c-6.251,4.217-13.223,7.189-20.272,9.788q-5.49,2.024-11.039,3.889a81.38,81.38,0,0,1-11.73,3.21c-8.1,1.446-16.434.409-24.507-.706q-1.147-.158-2.292-.329,1.557.025,3.111.007a122.074,122.074,0,0,0,42.7-8.017,99.274,99.274,0,0,0,35.868-23.351,87.56,87.56,0,0,0,12.227-16.14q-1.346,2.849-2.864,5.608A97.416,97.416,0,0,1,961.36,381.23C960.842,381.609,960.32,381.981,959.786,382.341ZM838.3,376.31c3.2,2.783,6.529,5.41,9.932,7.869q1.077.779,2.177,1.529A58.769,58.769,0,0,1,838.3,376.31Zm9.7-139.7a1.042,1.042,0,0,0,1.354-.258c4.842-5.547,12.222-8.22,19-10.552a113.82,113.82,0,0,1,23.194-5.429,92.953,92.953,0,0,1,44.267,4.927A76.434,76.434,0,0,1,969.4,249.873a138.509,138.509,0,0,1,12.4,20.09,106,106,0,0,1,8.912,21.909,72.338,72.338,0,0,1-1.295,40.34,84.491,84.491,0,0,1-21.033,34.36,97.884,97.884,0,0,1-35.491,22.035,120.594,120.594,0,0,1-42.023,7.105,68.937,68.937,0,0,1-23.771-3.9,78.294,78.294,0,0,1-19.346-11.067,126.532,126.532,0,0,1-18.664-17.011,83.132,83.132,0,0,1-8.313-24.511,147.536,147.536,0,0,1-2.205-20.484,202.985,202.985,0,0,1,.179-23.344,94.547,94.547,0,0,1,4.278-23.1,75.567,75.567,0,0,1,8-16.722,81.366,81.366,0,0,1,12.845-15.491Q845.909,238.312,848,236.607ZM827.078,365.226q1.015,1.84,2.148,3.609a74.813,74.813,0,0,1-6.746-9.208Q824.675,362.5,827.078,365.226Zm90.049,36.653c-.805.055-1.612.1-2.418.126,1.435-.164,2.869-.387,4.3-.688a99.877,99.877,0,0,0,12.022-3.547c3.744-1.3,7.489-2.6,11.191-4.005,1.758-.669,3.511-1.366,5.249-2.1C938.242,397.272,927.907,401.133,917.127,401.879Zm-7.95-190.444a105.612,105.612,0,0,1,21.177,2.627l-.527-.094a149.731,149.731,0,0,0-27.449-2.272C904.629,211.5,906.9,211.4,909.177,211.435Zm-100.946,95.3c.418-15.028,4.228-29.868,9.982-43.706,2.9-6.965,6.2-14.047,10.939-19.971a61.225,61.225,0,0,1,16.853-14.088,102.453,102.453,0,0,1,24.842-10.477q-2.5,1.261-4.926,2.649a136.581,136.581,0,0,0-13.312,8.718,86.328,86.328,0,0,0-9.9,7.907c-3.968,3.412-7.8,6.984-11.49,10.653-5.525,5.488-10.5,11.472-13.349,18.806-2.96,7.625-3.957,15.969-5.039,24.026-1.162,8.65-2.039,17.353-2.484,26.07-.185,3.628-.249,7.271-.089,10.9A86.417,86.417,0,0,1,808.231,306.73Z" transform="translate(-805.701 -208.938)" fill="#8bbf4d"/>
      <path id="Path_2299" data-name="Path 2299" d="M1046.733,348.753a.92.92,0,1,1,1.479-1.091,1.272,1.272,0,0,0,1.532-.87,14.991,14.991,0,0,1,3.619-5.436,17.078,17.078,0,0,1,4.23-1.722,16.633,16.633,0,0,1,17.11,6.1,1.283,1.283,0,0,0,1.7.446,1.254,1.254,0,0,0,.447-1.7c-.211-.282-.43-.557-.655-.828a1.334,1.334,0,0,0,.321.107,1.238,1.238,0,0,0,2-1.445c-.132-.191-.271-.375-.409-.559a1.89,1.89,0,0,0-.459-.866,10.7,10.7,0,0,0-1.171-1.018,18.056,18.056,0,0,0-4.714-3.395,26.08,26.08,0,0,0-6.887-3.035c-6.238-1.657-13.41-.348-17.428,5.036a11.941,11.941,0,0,0-2.249,9.41A1.259,1.259,0,0,0,1046.733,348.753ZM1065.96,337.2a15.293,15.293,0,0,1,4.367,1.316q1.183.714,2.307,1.519.914.658,1.786,1.369c.188.154.374.31.561.466q.216.228.422.465a1.1,1.1,0,0,0,.049.469A19.322,19.322,0,0,0,1065.96,337.2Zm-12.026-.83a13.649,13.649,0,0,1,5.131-1.133,18.268,18.268,0,0,0-7.058,3.988c-.037.034-.072.071-.109.1-.21.125-.42.252-.626.384a19.447,19.447,0,0,0-3.121,2.512A11.354,11.354,0,0,1,1053.934,336.37Z" transform="translate(-925.792 -271.083)" fill="#8bbf4d"/>
      <path id="Path_2300" data-name="Path 2300" d="M878.192,347.258a1.078,1.078,0,0,0,.284,1.171,1.32,1.32,0,0,0,1.209.907,1.185,1.185,0,0,0,.552-.133,1.082,1.082,0,0,0,.185.074,1.272,1.272,0,0,0,1.532-.87,13.339,13.339,0,0,1,8.937-8.209,11.967,11.967,0,0,1,10.753,2.442,14.261,14.261,0,0,1,3.862,5.07,1.254,1.254,0,0,0,1.7.446,1.154,1.154,0,0,0,.569-.8,1.448,1.448,0,0,0,1.012-.208,2.367,2.367,0,0,0,.955-1.979,3.891,3.891,0,0,0-.817-1.956,16.926,16.926,0,0,0-1.225-1.666,1.27,1.27,0,0,0-.156-.365,16.323,16.323,0,0,0-12.826-7.411,15.971,15.971,0,0,0-15.681,11.339A16.8,16.8,0,0,0,878.192,347.258Zm24.557-6.9c.056.038.114.072.169.111a14.875,14.875,0,0,1,2.8,2.563,12.855,12.855,0,0,1,1.106,1.517c.079.126.183.284.274.429a1.531,1.531,0,0,0-.146.128A16.207,16.207,0,0,0,902.749,340.357Z" transform="translate(-842.05 -271.576)" fill="#8bbf4d"/>
      <path id="Path_2301" data-name="Path 2301" d="M918.478,448.507a1.256,1.256,0,0,0-1.7-.446,1.218,1.218,0,0,0-.558,1.368,1.284,1.284,0,0,0-1.12,1.871c.083.154.173.3.258.456a1.147,1.147,0,0,0-.1,1.341A46.5,46.5,0,0,0,944.25,474.87,45.9,45.9,0,0,0,994.125,453.5a1.363,1.363,0,0,0,.123-.282c1.862-2.355,3.639-4.78,5.386-7.2a1.255,1.255,0,0,0-.447-1.7,1.273,1.273,0,0,0-1.7.447,109.739,109.739,0,0,1-11.369,13.93,48.021,48.021,0,0,1-4.59,4.038,1.141,1.141,0,0,0-.174-.235,1.274,1.274,0,0,0-1.761,0,40.391,40.391,0,0,1-10.075,6.009,41.151,41.151,0,0,1-7.839.733,81.736,81.736,0,0,1-10.72-.517,49.046,49.046,0,0,1-18.942-5.982A33.339,33.339,0,0,1,918.478,448.507Zm29.433,22.276a74.827,74.827,0,0,0,8.465.859c-1.3.1-2.6.138-3.906.112a40.734,40.734,0,0,1-21.761-6.948A50.766,50.766,0,0,0,947.911,470.783Z" transform="translate(-860.522 -326.978)" fill="#8bbf4d"/>
    </g>
  </g>
</svg>
