<svg id="Group_755" data-name="Group 755" xmlns="http://www.w3.org/2000/svg" width="38.218" height="37.213" viewBox="0 0 38.218 37.213">
  <path id="_3ea3309757e7ff99fa89e3339abdc268" data-name="3ea3309757e7ff99fa89e3339abdc268" d="M19.173,7.707h0l-5.708-5a2.854,2.854,0,0,0-3.805,0l-5.708,5A2.854,2.854,0,0,0,3,9.857v8.315a2.854,2.854,0,0,0,2.854,2.854H17.27a2.854,2.854,0,0,0,2.854-2.854V9.847a2.854,2.854,0,0,0-.951-2.14ZM13.465,19.123H9.659V14.366a.951.951,0,0,1,.951-.951h1.9a.951.951,0,0,1,.951.951Zm4.757-.951a.951.951,0,0,1-.951.951h-1.9V14.366a2.854,2.854,0,0,0-2.854-2.854h-1.9a2.854,2.854,0,0,0-2.854,2.854v4.757h-1.9a.951.951,0,0,1-.951-.951V9.847a.951.951,0,0,1,.323-.713l5.708-4.994a.951.951,0,0,1,1.256,0L17.9,9.134a.951.951,0,0,1,.323.713Z" transform="translate(7.299 6.657)" fill="#fff"/>
  <g id="Ellipse_40" data-name="Ellipse 40" fill="none" stroke="#fff" stroke-width="2">
    <ellipse cx="19.109" cy="18.606" rx="19.109" ry="18.606" stroke="none"/>
    <ellipse cx="19.109" cy="18.606" rx="18.109" ry="17.606" fill="none"/>
  </g>
</svg>
