<svg id="Icon-GreenCard" xmlns="http://www.w3.org/2000/svg" width="38.037" height="38.046" viewBox="0 0 38.037 38.046">
  <path id="Path_7" data-name="Path 7" d="M560.643,2568.835H535.649a8.261,8.261,0,0,1,13.85-3.805,8.321,8.321,0,0,1,.679.769,2.051,2.051,0,0,0,3.462-.35,1.993,1.993,0,0,0-.208-2.11,12.512,12.512,0,0,0-1.05-1.194,12.333,12.333,0,0,0-20.9,6.69h-2.638a14.951,14.951,0,0,1,27.282-6.2,2.033,2.033,0,0,0,3.382-2.259,19.01,19.01,0,1,0,3.165,10.491A2.036,2.036,0,0,0,560.643,2568.835Zm-25.72,10.77a12.346,12.346,0,0,0,17.46,0,12.564,12.564,0,0,0,.962-1.082,2.04,2.04,0,1,0-3.212-2.514,8.4,8.4,0,0,1-.634.711,8.256,8.256,0,0,1-13.85-3.806h22.809a14.945,14.945,0,0,1-29.61,0h2.638A12.252,12.252,0,0,0,534.924,2579.605Z" transform="translate(-524.64 -2551.852)" fill="#fff"/>
</svg>
