<svg id="Group_752" data-name="Group 752" xmlns="http://www.w3.org/2000/svg" width="37.213" height="37.213" viewBox="0 0 37.213 37.213">
  <path id="fe2df171891038b33e9624c27e96e367" d="M15.246,12.345a5.8,5.8,0,1,0-7.168,0,9.66,9.66,0,0,0-6.008,7.9A.972.972,0,0,0,4,20.46a7.728,7.728,0,0,1,15.359,0,.966.966,0,0,0,.966.86h.106a.966.966,0,0,0,.85-1.063,9.66,9.66,0,0,0-6.037-7.911Zm-3.584-.686A3.864,3.864,0,1,1,15.526,7.8,3.864,3.864,0,0,1,11.662,11.66Z" transform="translate(6.862 6.871)" fill="#fff"/>
  <g id="Ellipse_37" data-name="Ellipse 37" fill="none" stroke="#fff" stroke-width="2">
    <circle cx="18.606" cy="18.606" r="18.606" stroke="none"/>
    <circle cx="18.606" cy="18.606" r="17.606" fill="none"/>
  </g>
</svg>
