<svg xmlns="http://www.w3.org/2000/svg" width="61" height="61" viewBox="0 0 61 61">
  <g id="Group_1144" data-name="Group 1144" transform="translate(-20 -366)">
    <g id="Ellipse_51" data-name="Ellipse 51" transform="translate(20 366)" fill="none" stroke="#96bc5d" stroke-width="2">
      <circle cx="30.5" cy="30.5" r="30.5" stroke="none"/>
      <circle cx="30.5" cy="30.5" r="29.5" fill="none"/>
    </g>
    <g id="Group_902" data-name="Group 902" transform="translate(32.229 378.339)">
      <g id="g1863">
        <path id="path877" d="M738.269,192c-.2,0-.4.017-.6.03l-.119.007c-.211.017-.418.043-.624.074l-.092.014a9.085,9.085,0,0,0-7.061,5.8,7.7,7.7,0,0,0-1.7-.246,7.933,7.933,0,0,0-2.277,15.534v4.88a1.711,1.711,0,0,0,1.7,1.7v3.4A5.107,5.107,0,0,0,732.6,228.3h11.345a5.107,5.107,0,0,0,5.105-5.105v-3.4a1.711,1.711,0,0,0,1.7-1.7v-3.176a7.93,7.93,0,0,0-2.146-15.531.56.56,0,0,0-.123-.012,7.985,7.985,0,0,0-1.33.112,9.05,9.05,0,0,0-8.759-7.474A.564.564,0,0,0,738.269,192Zm0,1.141a7.923,7.923,0,0,1,7.808,6.609,7.959,7.959,0,0,0-5.171,5.172.568.568,0,1,0,1.082.345,6.816,6.816,0,0,1,4.745-4.529.563.563,0,0,0,.121-.017,6.8,6.8,0,1,1,1.634,13.395.567.567,0,1,0-.016,1.135h.016a7.924,7.924,0,0,0,1.128-.09v2.933a.554.554,0,0,1-.567.567h-.472a.567.567,0,0,0-.185,0H728.146a.508.508,0,0,0-.178,0h-.476a.554.554,0,0,1-.567-.567v-4.637a7.913,7.913,0,0,0,1.141.092.567.567,0,1,0,.016-1.135h-.016a6.8,6.8,0,1,1,1.387-13.452,8.979,8.979,0,0,0,.667,6.113.567.567,0,1,0,1.018-.5,7.949,7.949,0,0,1-.474-5.781.579.579,0,0,0,.029-.073,7.928,7.928,0,0,1,2.872-4.035q.249-.184.512-.347a7.924,7.924,0,0,1,2.258-.957l.052-.014c.189-.046.38-.084.573-.116l.078-.011c.193-.03.388-.056.585-.072.214-.017.43-.027.647-.027ZM728.626,219.8h19.287v3.4a3.95,3.95,0,0,1-3.971,3.971H732.6a3.95,3.95,0,0,1-3.971-3.971Z" transform="translate(-720.129 -192)" fill="#96bc5d" stroke="#96bc5d" stroke-width="0.2"/>
        <path id="path898" d="M834.49,504a.567.567,0,0,0-.016,1.134h2.852a.567.567,0,0,0,.016-1.134H834.49Z" transform="translate(-823.157 -474.502)" fill="#96bc5d" stroke="#96bc5d" stroke-width="0.2"/>
        <path id="path900" d="M948.49,504a.567.567,0,1,0-.016,1.134h2.852a.567.567,0,1,0,.016-1.134H948.49Z" transform="translate(-926.379 -474.502)" fill="#96bc5d" stroke="#96bc5d" stroke-width="0.2"/>
        <path id="path923" d="M888.558,521.915a.567.567,0,0,0-.558.575,2.269,2.269,0,0,0,4.538,0,.567.567,0,1,0-1.135-.016c0,.005,0,.011,0,.016a1.135,1.135,0,0,1-2.269,0,.567.567,0,0,0-.559-.575Z" transform="translate(-872.129 -490.723)" fill="#96bc5d" stroke="#96bc5d" stroke-width="0.2"/>
        <path id="path927" d="M1014.49,292.839a.567.567,0,1,0-.016,1.134h.016a4.639,4.639,0,0,1,4.648,4.648.567.567,0,1,0,1.135.016c0-.005,0-.011,0-.016A5.791,5.791,0,0,0,1014.49,292.839Z" transform="translate(-986.139 -283.306)" fill="#96bc5d" stroke="#96bc5d" stroke-width="0.2"/>
        <path id="path929" d="M864.582,216a6.792,6.792,0,0,0-4.774,1.955.567.567,0,1,0,.78.824l.015-.015a5.673,5.673,0,0,1,8.931,1.274.567.567,0,0,0,1-.537l-.01-.018A6.809,6.809,0,0,0,864.582,216Z" transform="translate(-846.442 -213.731)" fill="#96bc5d" stroke="#96bc5d" stroke-width="0.2"/>
        <path id="path933" d="M746.9,278.3a.568.568,0,0,0-.2.038,5.781,5.781,0,0,0-3.772,5.418.567.567,0,1,0,1.135.016c0-.005,0-.011,0-.016a4.638,4.638,0,0,1,3.031-4.353.567.567,0,0,0-.188-1.1Z" transform="translate(-740.766 -270.138)" fill="#96bc5d" stroke="#96bc5d" stroke-width="0.2"/>
      </g>
    </g>
  </g>
</svg>
