<svg id="Group_885" data-name="Group 885" xmlns="http://www.w3.org/2000/svg" width="85.677" height="87.087" viewBox="0 0 85.677 87.087">
  <g id="Group_879" data-name="Group 879" transform="translate(0 0)">
    <path id="Path_2311" data-name="Path 2311" d="M2018.428,1237.071c-.674-1.634-1.439-3.226-2.263-4.786q-.535-1.987-1.244-3.921a21.574,21.574,0,0,0-4.91-8.23,25.985,25.985,0,0,0-3.874-2.98c-.294-.193-.589-.383-.884-.573a34.975,34.975,0,0,0-9.1-6.934q-1.017-.588-2.062-1.123c-5.756-2.937-12.375-4.921-18.889-4.437a24.3,24.3,0,0,0-9.4,2.73c-.693.359-1.37.745-2.035,1.151-.281.035-.561.076-.842.129a20.221,20.221,0,0,0-8.047,3.77,62.366,62.366,0,0,0-6.837,6.077,68.285,68.285,0,0,0-6.406,6.991,24.706,24.706,0,0,0-4.345,8.648,61.455,61.455,0,0,0-1.557,9.955c-.605,6.34-.576,12.871,1.118,19.053a31.5,31.5,0,0,0,3.83,8.707c.076.117.156.231.233.347a32.3,32.3,0,0,0,2.639,4.553,34.757,34.757,0,0,0,12.808,11.114c5.921,2.98,12.524,3.919,19.1,3.775a43.635,43.635,0,0,0,9.971-1.285,31.517,31.517,0,0,0,9.277-4.1c1.71-1.109,3.349-2.332,4.952-3.6a37.363,37.363,0,0,0,4.386-3.6,77.751,77.751,0,0,0,6.154-5.776c4.448-4.707,8.164-10.249,9.883-16.552a26.482,26.482,0,0,0,.847-9.568A33.834,33.834,0,0,0,2018.428,1237.071Zm-17.93,42.477a44.927,44.927,0,0,1-6.9,4.817l-.087.049c-.173.084-.346.169-.52.25a46.534,46.534,0,0,1-14.845,3.937c-1.3-.018-2.595-.1-3.883-.215a64.784,64.784,0,0,1-10.322-1.581c-.288-.074-.573-.156-.858-.239a.468.468,0,0,0-.522-.425c-.257.018-.512.02-.765.015a27.3,27.3,0,0,1-3.457-1.483.458.458,0,0,0-.239-.121,30.1,30.1,0,0,1-8.5-6.706,39.054,39.054,0,0,1-8.251-15.733,65.389,65.389,0,0,1-2.005-19.788,33.716,33.716,0,0,1,1.334-8.672c.037-.09.073-.18.112-.269a23.038,23.038,0,0,1,2.424-4.128c1.852-2.579,3.952-5.021,6.041-7.411a44.813,44.813,0,0,1,6.684-6.447,28.119,28.119,0,0,1,8.286-4.251,48.827,48.827,0,0,1,9.159-1.9c3.188-.386,6.406-.645,9.613-.812a26.216,26.216,0,0,1,5.087.128,14.8,14.8,0,0,1,4.709,1.531c1.5.774,2.907,1.712,4.328,2.616l4.531,2.883c.874.556,1.773,1.1,2.667,1.659q.807.8,1.571,1.639,1.1,1.261,2.115,2.589.825,1.08,1.6,2.195a39.6,39.6,0,0,1,5.622,13.349,37.816,37.816,0,0,1,.851,9.273,42.721,42.721,0,0,1-1.6,9.8,68.19,68.19,0,0,1-4.26,12.023A46.51,46.51,0,0,1,2000.5,1279.547Zm-58.652-8.472a39.874,39.874,0,0,1-3.535-13.422,63.307,63.307,0,0,1-.107-9.689c0-.075.01-.15.015-.225a61.555,61.555,0,0,0,2.258,15.33,39.8,39.8,0,0,0,8.74,15.989c.4.432.809.849,1.228,1.256-1.262-1.053-2.482-2.16-3.645-3.307A37.367,37.367,0,0,1,1941.846,1271.076Zm22.429,16.944c1.267.3,2.552.546,3.845.75a25.573,25.573,0,0,1-3.043-.44,15.614,15.614,0,0,1-2.9-.893Q1963.213,1287.766,1964.275,1288.019Zm-.113-79.006a21.842,21.842,0,0,1,3.828-.012,40.756,40.756,0,0,0-4.81,1.338q-1.185.414-2.323.922C1961.929,1210.469,1963.028,1209.712,1964.162,1209.013Zm45.541,12.373a19.366,19.366,0,0,1,3.707,6.105c-.966-1.571-1.971-3.118-3.034-4.625q-.938-1.4-1.99-2.727A17.282,17.282,0,0,1,2009.7,1221.386Zm-33.885-16.238a32,32,0,0,1,11.7,1.778,22.489,22.489,0,0,0-3.5-.145c-3.566.134-7.052,1-10.608,1.246-2.394.163-4.793-.174-7.183-.192.128-.067.253-.137.381-.2A22.844,22.844,0,0,1,1975.818,1205.148Zm-38.182,56.11c-1.468-6.07-1.371-12.421-.723-18.595a51.635,51.635,0,0,1,1.69-9.7,24.409,24.409,0,0,1,4.507-8.151,80.695,80.695,0,0,1,6.342-6.725,51.246,51.246,0,0,1,6.7-5.79,20.787,20.787,0,0,1,4.989-2.594c-1.153.82-2.277,1.683-3.383,2.561-4.768,3.788-9.7,7.657-13.475,12.477a27.44,27.44,0,0,0-4.411,7.846c-.087.25-.168.5-.247.754-.047.113-.095.225-.139.339a26.077,26.077,0,0,0-1.326,4.986,82.146,82.146,0,0,0-1.094,9.974,61.177,61.177,0,0,0,.236,9.9q.184,1.657.486,3.3C1937.737,1261.648,1937.683,1261.454,1937.636,1261.258Zm18.585,24.748a33.766,33.766,0,0,1-9.619-7.661c.068.065.134.131.2.2a57.156,57.156,0,0,0,7.158,5.819,17.936,17.936,0,0,0,5.032,2.474,11.187,11.187,0,0,0,1.69,1.107A30.968,30.968,0,0,1,1956.221,1286.005Zm18.467,3.993q-.642.005-1.282,0l.694-.019q2.057-.065,4.109-.276.931.01,1.861-.026A49.677,49.677,0,0,1,1974.688,1290Zm44.063-33.214a39.357,39.357,0,0,1-9.454,15.279,36.484,36.484,0,0,0,1.812-3.284c.468-.772.915-1.556,1.336-2.353a46.571,46.571,0,0,0,5.218-18.343,47.822,47.822,0,0,0-.5-11.207c.188.44.371.883.545,1.329a31.376,31.376,0,0,1,2.191,9.291A25.964,25.964,0,0,1,2018.751,1256.784Z" transform="translate(-1935.366 -1204.013)" fill="#c6c2c2"/>
    <path id="Path_2312" data-name="Path 2312" d="M2040.657,1346.588a4.007,4.007,0,0,0,4.1.984,4.327,4.327,0,0,0,2.658-2.942,3.281,3.281,0,0,0-.075-2.6,3.086,3.086,0,0,0-.315-.527,4.882,4.882,0,0,0-1.363-1.6c-1.319-1-3.326-1.261-4.489.119a3.753,3.753,0,0,0-.457.686c-.043.038-.088.074-.13.115a2.493,2.493,0,0,0-.748,1.764A3.953,3.953,0,0,0,2040.657,1346.588Zm1.847-5.457c.026-.021.054-.039.082-.058a2.793,2.793,0,0,1,.68.035.483.483,0,0,0-.111.207,2.7,2.7,0,0,0,0,1.681,1.49,1.49,0,0,0,1.189.936,1.111,1.111,0,0,0,.9-.345.824.824,0,0,1-.092.156c-.3.4-1.076.288-1.542.244a2.128,2.128,0,0,1-1.45-.621A1.7,1.7,0,0,1,2042.5,1341.131Zm1.983,1.673,0,.022a.021.021,0,0,1-.008.012.217.217,0,0,1-.136-.045.724.724,0,0,1-.215-.757,1.967,1.967,0,0,1,.322.076A.553.553,0,0,0,2044.487,1342.8Zm-.019.04c-.009,0-.013,0,0,0Zm-2.554,1.969a3.647,3.647,0,0,1-.2-.368,2.419,2.419,0,0,0,.213.149,4.543,4.543,0,0,0,2.5.526c.072,0,.141-.012.21-.019a1.87,1.87,0,0,1-2.081.425A2.8,2.8,0,0,1,2041.915,1344.814Z" transform="translate(-2016.686 -1309.354)" fill="#c6c2c2"/>
    <path id="Path_2313" data-name="Path 2313" d="M2201.4,1360.133l-.023,0Z" transform="translate(-2142.845 -1325.78)" fill="#c6c2c2"/>
    <path id="Path_2314" data-name="Path 2314" d="M2188.246,1336.823a3.258,3.258,0,0,0-2.476-.891,3.141,3.141,0,0,0-1.885,1.726,5.724,5.724,0,0,0-.517,4.725,4.849,4.849,0,0,0,.593,1.342c.907,1.413,2.829,2.662,4.447,1.576a4.588,4.588,0,0,0,1.454-1.8,7.9,7.9,0,0,0,.932-2.662C2190.979,1339.056,2189.577,1337.753,2188.246,1336.823Zm-1.155,4.4s.167.021.2.02a.826.826,0,0,0,.367-.1,1.024,1.024,0,0,0,.058-1.766.566.566,0,0,0-.752.2c0,.006-.005.013-.009.02,0-.02,0-.032,0-.032.008-.047.02-.094.031-.141.009-.031.018-.061.029-.09l.013-.027c.084-.157.1-.18.233-.232a.793.793,0,0,1,.621.045,1.35,1.35,0,0,1,.782,1.141c.014.9-1.012,1.891-1.777,1.111a1.367,1.367,0,0,1-.188-.248A1.619,1.619,0,0,0,2187.091,1341.224Zm.216-1.071h0Zm-1.755-1.473c-.028.127-.055.252-.08.372a4.489,4.489,0,0,0-.084,1.621,2.5,2.5,0,0,0,1.318,1.9,1.983,1.983,0,0,0,.475.15,1.7,1.7,0,0,1-1.881-.884,4.025,4.025,0,0,1-.046-2.907A3.081,3.081,0,0,1,2185.552,1338.681Z" transform="translate(-2128.564 -1306.876)" fill="#c6c2c2"/>
    <path id="Path_2315" data-name="Path 2315" d="M2076.4,1461.429a.468.468,0,0,0-.158-.489,28.554,28.554,0,0,0-11.723-6.3,26.032,26.032,0,0,0-6.892-.908,13.244,13.244,0,0,0-3.738.552,16.611,16.611,0,0,0-3.252,1.436,29.8,29.8,0,0,0-3.272,2.146,10.487,10.487,0,0,0-2.683,2.759c-.376.6.575,1.155.95.555.038-.062.08-.121.121-.181-.018.045-.039.087-.056.132a.487.487,0,0,0,.1.474q-.431.37-.849.752a.51.51,0,0,0-.157.256c-.172.155-.346.307-.514.466-.515.487.263,1.264.778.778a26.676,26.676,0,0,1,13.712-6.817,25.779,25.779,0,0,1,4.79-.4q.436.085.866.2a19.369,19.369,0,0,1,6.153,3.021c1.069.752,2.085,1.576,3.076,2.428.4.342.788.691,1.179,1.041.779,1.366,1.434,2.811,2.07,4.233a.554.554,0,0,0,.752.2.564.564,0,0,0,.2-.753c-.269-.6-.543-1.2-.826-1.8a1,1,0,0,0,.107-1.2,2.929,2.929,0,0,0-.6-.618q-.375-.341-.751-.679l-.116-.1q-.273-.469-.569-.924a19.845,19.845,0,0,1,3.03,3.615c.385.591,1.338.04.95-.555A21.043,21.043,0,0,0,2076.4,1461.429Zm-15.693-6.419c-.28-.009-.56-.015-.84-.019a37.86,37.86,0,0,0-5.037.186,11.239,11.239,0,0,1,2.109-.325A20.565,20.565,0,0,1,2060.708,1455.01Zm-9.42,2.165a14,14,0,0,1,3.613-.9,23.66,23.66,0,0,0-2.973,1.221,28.323,28.323,0,0,0-4.661,2.911A8.521,8.521,0,0,1,2051.288,1457.175Zm18.75,1.018q.44.215.868.45a10.474,10.474,0,0,1,1.032.862C2071.321,1459.044,2070.688,1458.6,2070.038,1458.193Z" transform="translate(-2020.18 -1398.785)" fill="#c6c2c2"/>
  </g>
</svg>
