<svg xmlns="http://www.w3.org/2000/svg" width="88.416" height="86.687" viewBox="0 0 88.416 86.687">
  <g id="Group_880" data-name="Group 880" transform="translate(0 0)">
    <g id="Group_878" data-name="Group 878" transform="translate(0 0)">
      <path id="Path_2306" data-name="Path 2306" d="M2010.085,221.936c.108-7.431-.323-15.276-4.451-21.713a32.831,32.831,0,0,0-4.606-5.581,24.7,24.7,0,0,0-2.863-3.684,26.027,26.027,0,0,0-8.687-5.889,36.5,36.5,0,0,0-4.821-1.665,49.215,49.215,0,0,0-15.792-4.224,43.607,43.607,0,0,0-19.837,2.767c-.621.141-1.238.3-1.848.481a22.718,22.718,0,0,0-9.373,5.528,44.029,44.029,0,0,0-5.649,6.808c-.06.077-.121.151-.18.228a47.8,47.8,0,0,0-8.355,17.371,48.61,48.61,0,0,0-.5,21.829,39.942,39.942,0,0,0,9.493,18.776,35.128,35.128,0,0,0,7.721,6.346,37.156,37.156,0,0,0,10.132,4.107c1.536.387,3.092.692,4.656.943a34.6,34.6,0,0,0,11.33,1.07h.023q3.233.169,6.469.236a34.659,34.659,0,0,0,10.766-1.111,17.927,17.927,0,0,0,4.889-2.306,34.454,34.454,0,0,0,4.378-3.71c5.507-5.283,11.209-10.717,14.63-17.652a26.869,26.869,0,0,0,2.9-10.631,30.663,30.663,0,0,0-.478-6.388Q2010.071,222.9,2010.085,221.936Zm-14.493,28.484a74.722,74.722,0,0,1-8.438,7.139q-.32.225-.644.442a42.256,42.256,0,0,1-15.564,4.817,50.574,50.574,0,0,1-21.859-2.6q-.7-.242-1.4-.5c-.974-.6-1.927-1.244-2.862-1.9-1.5-1.052-2.96-2.156-4.419-3.262-1.426-1.08-2.85-2.165-4.193-3.347a24.407,24.407,0,0,1-3.644-3.876,20.806,20.806,0,0,1-2.573-4.814,51.541,51.541,0,0,1-2.691-11.251,66.086,66.086,0,0,1-.592-11.9,48.2,48.2,0,0,1,5.273-20.844,33.184,33.184,0,0,1,11.818-12.687,58.437,58.437,0,0,1,19.005-1.916,61.6,61.6,0,0,1,19.041,4.3,58.08,58.08,0,0,1,16.593,10.1,31.109,31.109,0,0,1,3.776,3.8,16.161,16.161,0,0,1,2.3,3.879c.375,1.473.693,2.962.966,4.456a71.705,71.705,0,0,1,1.208,11.21c.171,7.234-1.033,14.574-4.527,20.98-.449.822-.933,1.623-1.445,2.406A70.427,70.427,0,0,1,1995.592,250.42Zm-34.367,13.567c-1.939-.161-3.877-.379-5.8-.684-.343-.1-.684-.2-1.023-.317-.286-.1-.57-.2-.852-.307a50.52,50.52,0,0,0,17.025,1.274q-2.04.28-4.1.379C1964.723,264.243,1962.972,264.132,1961.224,263.987Zm40.339-66.2q-.661-.867-1.362-1.7a53.808,53.808,0,0,0-4.314-4.516q.949.754,1.866,1.546c.832.72,1.648,1.464,2.435,2.238Q2000.935,196.533,2001.563,197.783Zm-34.7-15.462c5.712.3,11.57.568,17.124,2.023a34.214,34.214,0,0,1,8.559,5.722,57.687,57.687,0,0,1,7.146,7.121c.75.9,1.465,1.844,2.133,2.817-.884-.933-1.836-1.8-2.807-2.643a59.7,59.7,0,0,0-17.126-10.3,62.513,62.513,0,0,0-19.555-4.262,59.821,59.821,0,0,0-14.431.962,26.374,26.374,0,0,1,3.514-1.155,68.062,68.062,0,0,1,8.082-.722l.167-.006C1962.073,181.957,1964.482,182.2,1966.864,182.321Zm-41.835,34.2a37.407,37.407,0,0,1,2.3-10.306,44.35,44.35,0,0,1,1.829-4.223,52.285,52.285,0,0,0-3.56,17.824,66.41,66.41,0,0,0,.156,7.165A42.068,42.068,0,0,1,1925.029,216.523Zm17.2,40.767a31.238,31.238,0,0,1-3.046-1.85,22.04,22.04,0,0,1-4.371-4.02q.471.436.959.856c1.391,1.2,2.859,2.3,4.322,3.41Q1941.16,256.493,1942.232,257.29Zm65.552-36.181c-.043-1.323-.131-2.644-.255-3.961.1.466.209.931.309,1.4.383,1.788.788,3.6,1.095,5.419a35.416,35.416,0,0,1-1.547,9.832,28.4,28.4,0,0,1-2.27,5.053A45.78,45.78,0,0,0,2007.783,221.109Zm-2.941-20.082c3.3,5.282,4.062,11.517,4.149,17.649q-.083-.381-.165-.76c-.335-1.552-.692-3.1-1.06-4.644a24.725,24.725,0,0,0-3.063-10.633c-.329-1.015-.69-2.019-1.1-3.006-.129-.312-.265-.623-.4-.932A26.685,26.685,0,0,1,2004.842,201.027Zm-35.827-20.734a44.677,44.677,0,0,1,5.344.832c-.981-.089-1.963-.158-2.939-.221a110.935,110.935,0,0,0-11.9-.123c-.759-.026-1.519-.035-2.276-.021A44.219,44.219,0,0,1,1969.015,180.293Zm-35.89,71.6a39.029,39.029,0,0,1-9.046-18.526,47.129,47.129,0,0,1-.1-17.425c-.03.342-.057.684-.076,1.026a46.877,46.877,0,0,0,1.15,12.154c.742,3.6,1.6,7.192,2.7,10.7a40.943,40.943,0,0,0,4.07,9.324,24.257,24.257,0,0,0,7.127,7.466,39.867,39.867,0,0,0,8.273,4.11c.738.455,1.489.891,2.254,1.3a35.073,35.073,0,0,1-8.922-3.861A34.255,34.255,0,0,1,1933.125,251.89Zm76.273-21.33a25.989,25.989,0,0,1-3.005,10.315c-3.465,6.715-9.065,12.007-14.467,17.159a28.8,28.8,0,0,1-4.328,3.567,17.29,17.29,0,0,1-4.866,2.093,34.015,34.015,0,0,1-9.258.884,40.286,40.286,0,0,0,4.361-1.126,36.47,36.47,0,0,0,9.217-4.493q1.8-.976,3.51-2.129a40.163,40.163,0,0,0,11.1-11.2c.7-.828,1.372-1.673,2.013-2.546a32.408,32.408,0,0,0,4.858-9.261,28,28,0,0,0,.876-3.58C2009.407,230.345,2009.4,230.452,2009.4,230.559Z" transform="translate(-1922.12 -178.998)" fill="#8bbf4d"/>
      <path id="Path_2307" data-name="Path 2307" d="M2168.77,313.354a2.872,2.872,0,0,0-1.84,1.33,4.161,4.161,0,0,0-.5,1.253,3.614,3.614,0,0,0-.616.981,17.934,17.934,0,0,0-2.322-2.468,9.118,9.118,0,0,0-1.741-1.187,3.29,3.29,0,0,0-2.185-.529c-.82.231-.9,1.2-.955,1.9a7.708,7.708,0,0,0,.136,2.088,10.275,10.275,0,0,0,1.746,3.9,15.61,15.61,0,0,0,3.03,3.192c1.138.907,2.655,1.748,4.055.85,1.189-.763,1.665-2.219,2.158-3.464l.964-2.428a9.691,9.691,0,0,0,.768-2.476,2.989,2.989,0,0,0-.613-2.231A2.131,2.131,0,0,0,2168.77,313.354Zm-3.583,7.153a6.737,6.737,0,0,1-1.761-1.891c-.028-.046-.055-.093-.083-.139.11.086.228.2.335.3A12.136,12.136,0,0,1,2165.187,320.507Zm-2.22-2.208a.1.1,0,0,0,.025.012C2162.98,318.314,2162.97,318.312,2162.966,318.3Zm3.373,2.88c-.183-.083-.363-.174-.538-.275a.523.523,0,0,0,.233-.071.555.555,0,0,0,.2-.753c-.109-.156-.221-.308-.336-.46a.579.579,0,0,0,.454-.838c-.055-.088-.023-.024-.036-.107.011.075.013,0,.006-.011.012-.024.04-.08.046-.089a.645.645,0,0,1,.305-.228.312.312,0,0,1,.362.069.838.838,0,0,1,.246.369C2167.592,319.674,2166.907,320.49,2166.34,321.179Zm-4.6-5.487a10.333,10.333,0,0,1,2.133,1.821,1.364,1.364,0,0,0-1.195-.26.883.883,0,0,0-.6.708A4.969,4.969,0,0,1,2161.74,315.692Zm6.581,2.767a2.076,2.076,0,0,0-.336-.627,1.586,1.586,0,0,0-.658-.492.7.7,0,0,0,.02-.116c.018-.231.047-.478.091-.727a.818.818,0,0,1,1.114,0,.924.924,0,0,1,.14.422,2.251,2.251,0,0,1-.078.732A4.628,4.628,0,0,1,2168.321,318.459Zm2.048-2.16a8.87,8.87,0,0,1-.648,1.981l-.844,2.125a8.615,8.615,0,0,1-1.572,3.082,1.52,1.52,0,0,1-1.281.461,3.63,3.63,0,0,1-1.619-.827,14.926,14.926,0,0,1-2.648-2.627,10.251,10.251,0,0,1-1.716-3.153,7.164,7.164,0,0,1-.334-1.68,5.173,5.173,0,0,1,.11-1.719.47.47,0,0,1,.045-.13c.007-.011.012-.019.015-.024a.1.1,0,0,1,.059-.01,1.5,1.5,0,0,1,.359.072,5.506,5.506,0,0,1,.9.365c.056.028.11.061.165.091a.529.529,0,0,0-.557.392,6.2,6.2,0,0,0,.835,4.844,10.936,10.936,0,0,0,3.659,3.4,1.775,1.775,0,0,0,1.323.377,1.484,1.484,0,0,0,.893-.895l1.343-2.587c.6-1.165,1.529-2.917.472-4.11a1.676,1.676,0,0,0-1.418-.533,1.7,1.7,0,0,1,.966-.731C2170.01,314.132,2170.5,315.372,2170.368,316.3Z" transform="translate(-2106.562 -283.268)" fill="#8bbf4d"/>
      <path id="Path_2308" data-name="Path 2308" d="M2034.8,321.064a9.863,9.863,0,0,0,5.223,4.126,10.07,10.07,0,0,0,1.614.42.583.583,0,0,0,.621-.253c1.494-2.051,3.054-4.266,3.524-6.812a5.674,5.674,0,0,0-.283-3.571,1.9,1.9,0,0,0-2.7-1.011,6.862,6.862,0,0,0-1.475,1.66l-1.552,1.993a.728.728,0,0,0-.144.317l-.424-1.066a6.967,6.967,0,0,0-.893-1.849,2.375,2.375,0,0,0-3.043-.424,3.354,3.354,0,0,0-1.514,3.118A7.119,7.119,0,0,0,2034.8,321.064Zm3.224-1.187c.027-.015.052-.031.078-.046s.049-.015.053-.016a.642.642,0,0,1,.224-.012,1.051,1.051,0,0,1,.407.135,2.136,2.136,0,0,1,.468.437,5.162,5.162,0,0,0,1.135,1.074.558.558,0,0,0,.752-.2,3.111,3.111,0,0,0,.277-.613,1.5,1.5,0,0,1,.172.683,1.8,1.8,0,0,1-2.563.041,4.019,4.019,0,0,1-.976-1.191.435.435,0,0,1-.035-.262C2038.023,319.882,2038.036,319.872,2038.026,319.878Zm3.633-.913s-.013,0-.022.006Zm-.194.151,0,0a1.055,1.055,0,0,1,.11-.11l.012-.01.018-.01.01-.006.006,0a1.291,1.291,0,0,1,.307.435c.015.037.023.077.036.115A2.538,2.538,0,0,0,2041.465,319.116Zm-.611,3.8a2.705,2.705,0,0,0,.479-.132.691.691,0,0,1-.309.278,1.455,1.455,0,0,1-.966-.108A3.182,3.182,0,0,0,2040.854,322.919Zm1.976-4.167a1.339,1.339,0,0,0-1.138-.886,1.405,1.405,0,0,1,.449-.294.56.56,0,0,1,.423,0,.418.418,0,0,1,.24.272,1.353,1.353,0,0,1,.064.4A2.575,2.575,0,0,1,2042.83,318.752Zm-5.858.823a1.648,1.648,0,0,0,.332,1.464,6.011,6.011,0,0,1-1.176-2.2,3.52,3.52,0,0,1-.143-.668.834.834,0,0,1,.017-.287.859.859,0,0,1,.055-.11.771.771,0,0,1,.812.037,3.216,3.216,0,0,1,.883.994A1.225,1.225,0,0,0,2036.972,319.575Zm6.016-4.3a1.6,1.6,0,0,1,.473-.424.484.484,0,0,1,.417-.042.888.888,0,0,1,.353.243,1.98,1.98,0,0,1,.338.511,4.652,4.652,0,0,1,.12,2.867,11.007,11.007,0,0,1-1.209,3.088,29.579,29.579,0,0,1-1.93,2.95,9.906,9.906,0,0,1-1.094-.3A1.791,1.791,0,0,0,2041.6,324a2.6,2.6,0,0,0,1.028-1.456c.277-.712.549-1.426.823-2.139a7.1,7.1,0,0,0,.484-1.677,2.518,2.518,0,0,0-.21-1.5,1.566,1.566,0,0,0-1.375-.81,1.589,1.589,0,0,0-.325.04C2042.341,316.063,2042.658,315.663,2042.988,315.276Zm-8.113,1.848a1.922,1.922,0,0,1,1.524-1.782,1.137,1.137,0,0,1,.9.2,3.053,3.053,0,0,1,.729,1.322c.136.343.271.687.407,1.03a5.249,5.249,0,0,0-.414-.54,2.263,2.263,0,0,0-1.515-.774,1.5,1.5,0,0,0-1.413.658,1.661,1.661,0,0,0-.2,1.007A4.289,4.289,0,0,1,2034.875,317.124Z" transform="translate(-2009.191 -284.056)" fill="#8bbf4d"/>
      <path id="Path_2309" data-name="Path 2309" d="M2068.405,418.338a85.422,85.422,0,0,1-14.975,2.672q-2.744.239-5.5.3a.523.523,0,0,0-.929.014q-.824.011-1.648.007l-.054-.1a.547.547,0,0,0-.98.088q-2.706-.048-5.406-.268a.51.51,0,0,0-.605-.047l-.083-.006a84.526,84.526,0,0,1-8.443-1.183.565.565,0,0,0-.677.384.555.555,0,0,0,.384.677c.581.112,1.164.215,1.747.315a.444.444,0,0,0-.15.375,20.81,20.81,0,0,0,2.336,7.218.551.551,0,0,0,1.019-.277q.637,1.965,1.458,3.867c-2.826-2.583-4.552-6.1-6.088-9.547q-.293-.659-.581-1.32a.554.554,0,0,0-.753-.2.564.564,0,0,0-.2.753c1.594,3.644,3.257,7.386,6.035,10.3a17.2,17.2,0,0,0,10.515,5.044,20.934,20.934,0,0,0,10.862-1.681,23.376,23.376,0,0,0,8.331-6.222,22.465,22.465,0,0,0,4.8-9.227q.152-.629.264-1.267A.557.557,0,0,0,2068.405,418.338Zm-1.7,4.8-2.69-2.515a.566.566,0,0,0-.095-.07q.425-.09.848-.184a.527.527,0,0,0,.149.462l1.407,1.372a.561.561,0,0,0,.739.033Q2066.9,422.689,2066.706,423.136Zm-.874,1.814-.338-.607a.487.487,0,0,0-.377-.265l-2.52-3.257.576-.114a.548.548,0,0,0,.064.693l2.731,2.553a.6.6,0,0,0,.3.147C2066.131,424.386,2065.983,424.669,2065.832,424.949Zm1.271-3.527-1.32-1.288q1.03-.242,2.054-.509a20.214,20.214,0,0,1-.585,2.081A.515.515,0,0,0,2067.1,421.423Zm-19.843,1,4.924,9.862,1.472,2.949a.514.514,0,0,0,.061.1,20.169,20.169,0,0,1-4.017.954c0-.015,0-.029,0-.045q.012-.39.023-.779a.485.485,0,0,0-.38-.51,64.463,64.463,0,0,0-4-10.076c-.414-.83-.851-1.648-1.3-2.46.219,0,.437.012.655.015a79.87,79.87,0,0,1,4.535,9.875q.583,1.543,1.1,3.108c.223.668,1.285.382,1.061-.293a82.051,82.051,0,0,0-4.532-10.926q-.445-.886-.915-1.76C2046.387,422.432,2046.824,422.43,2047.259,422.423Zm-.159,12.507a.559.559,0,0,0-.29.006q-1.8-5.045-3.946-9.958-.58-1.33-1.188-2.648c.367.018.734.037,1.1.05a.522.522,0,0,0,.024.053,62.932,62.932,0,0,1,4.833,10.759q.538,1.583.992,3.192a.051.051,0,0,0,0,.008q-.639.048-1.281.054l.138-.84A.567.567,0,0,0,2047.1,434.93Zm-14.913-13.364a.793.793,0,0,0-.068-.232q1.872.3,3.755.519a.529.529,0,0,0-.053.592,57.611,57.611,0,0,1,3.96,9.745c.18.593.346,1.189.506,1.787a.547.547,0,0,0,.022.237l.27.881a.589.589,0,0,0,.1.187,15.992,15.992,0,0,1-1.829-.83.576.576,0,0,0,.231-.43q.044-.532.089-1.065a.555.555,0,0,0-.55-.55.588.588,0,0,0-.063.006q-1.74-5.051-3.223-10.186a.551.551,0,0,0-1.061.293q1.652,5.742,3.635,11.382a14.207,14.207,0,0,1-1.7-1.26.6.6,0,0,0,.462-.041.564.564,0,0,0,.2-.752,41.473,41.473,0,0,1-2.731-9.041.555.555,0,0,0-.677-.384.562.562,0,0,0-.384.677,41.928,41.928,0,0,0,1.248,5.02A19.335,19.335,0,0,1,2032.187,421.566Zm9.012,13.906a.529.529,0,0,0,.441-.668,59.129,59.129,0,0,0-3.531-10.156q-.617-1.362-1.3-2.69c.47.05.94.093,1.411.135l4.633,13.077a1.343,1.343,0,0,0,.473.773.677.677,0,0,0,.848-.09.686.686,0,0,0,.026-.872.551.551,0,0,0-.326-.217l-.051-.145-.238-.672-.495-1.4-.953-2.688-1.923-5.428-.794-2.241c.343.026.687.048,1.031.07a.758.758,0,0,0,.031.081q2.524,5.442,4.612,11.069.556,1.5,1.079,3.009A18.207,18.207,0,0,1,2041.2,435.472Zm2.783-.41c.008.01.008.013,0,0Zm10.7-.1a.507.507,0,0,0-.023-.155l-.47-1.452a.524.524,0,0,0-.431-.372q-2.177-4.363-4.356-8.725l-.931-1.864c.312-.009.624-.023.936-.036q2.461,4.639,5.238,9.1.811,1.3,1.649,2.586a.558.558,0,0,0,.113.124l-.071.038Q2055.527,434.625,2054.684,434.965Zm9.286-7.131a22.55,22.55,0,0,1-6.577,5.8,1.46,1.46,0,0,0-.233-1.186.569.569,0,0,0-.719-.213q-2.5-3.918-4.758-7.981-.536-.968-1.057-1.944c.279-.015.557-.037.836-.055a.538.538,0,0,0,.135.226c.24.245.476.493.712.743a.049.049,0,0,0,0,.01l5.353,9.408a.551.551,0,0,0,.95-.555l-1.553-2.729q.767,1.145,1.563,2.271a.565.565,0,0,0,.752.2.554.554,0,0,0,.2-.753c-.152-.215-.3-.432-.452-.649a.514.514,0,0,0-.009-.53q-1.379-2-2.913-3.89-1.218-1.942-2.356-3.935.716-.066,1.431-.144a.478.478,0,0,0,.021.52q2.614,4.1,5.624,7.929a.552.552,0,0,0,.666.086.57.57,0,0,0,.252-.621c-.06-.306-.12-.612-.181-.918a.555.555,0,0,0-.676-.384.536.536,0,0,0-.073.028q-2.469-3.239-4.663-6.675a.6.6,0,0,0-.052-.067c.935-.111,1.867-.24,2.8-.381a.71.71,0,0,0,.117.2l4.021,4.847a.554.554,0,0,0,.778,0,.562.562,0,0,0,0-.778l-3.7-4.46.016,0q.63-.1,1.259-.22a.73.73,0,0,0,.146.322l3.443,4.45a.4.4,0,0,0,.2.13A22.411,22.411,0,0,1,2063.97,427.834Z" transform="translate(-2004.872 -365.661)" fill="#8bbf4d"/>
      <path id="Path_2310" data-name="Path 2310" d="M2161.1,434.525a.554.554,0,0,0-.778,0,.564.564,0,0,0,0,.778l4.421,5.579a.553.553,0,0,0,.778,0,.563.563,0,0,0,0-.778Z" transform="translate(-2107.79 -378.179)" fill="#8bbf4d"/>
    </g>
  </g>
</svg>
