<svg xmlns="http://www.w3.org/2000/svg" width="92.171" height="90.685" viewBox="0 0 92.171 90.685">
  <g id="Group_881" data-name="Group 881" transform="translate(0 0)">
    <g id="Group_875" data-name="Group 875" transform="translate(0 0)">
      <path id="Path_2294" data-name="Path 2294" d="M1469.13,186.946a53.785,53.785,0,0,0-7.749-7.472,35.543,35.543,0,0,0-9.457-5.178,66.111,66.111,0,0,0-10.578-2.774c-1.808-.344-3.622-.653-5.437-.959a36.159,36.159,0,0,0-5.887-.651c-3.746-.011-7.082,1.463-10.366,3.115l-1.16.585a39.388,39.388,0,0,0-13.655,6.312,37.965,37.965,0,0,0-11.742,13.71,34.4,34.4,0,0,0-3.276,18.953,52.627,52.627,0,0,0,6.7,19.818c.172.309.348.616.524.923a45.2,45.2,0,0,0,8.824,13.732,44.105,44.105,0,0,0,16.2,10.813,39.971,39.971,0,0,0,37.311-4.428,37.191,37.191,0,0,0,8.854-8.755,38.611,38.611,0,0,0,4.383-3.682,31.5,31.5,0,0,0,8.616-16.984,39,39,0,0,0-1.683-19.461A54.244,54.244,0,0,0,1469.13,186.946Zm-74.753,6.6a37,37,0,0,1,11.614-13.1q1.421-.993,2.925-1.846a.579.579,0,0,0,.811.66q4.59-2.315,9.18-4.631c.941-.231,1.892-.425,2.85-.589q-1.755.535-3.457,1.234a45.342,45.342,0,0,0-16,11.223c-4.676,5.07-8.474,11.277-9.685,18.144a35.066,35.066,0,0,0-.335,8.909,39.823,39.823,0,0,0,1.85,10.7q.216.866.45,1.726a46.046,46.046,0,0,1-3.731-14.143A33.207,33.207,0,0,1,1394.376,193.548Zm8.387,46.541q-.45-.618-.89-1.245,1.464,1.912,3.087,3.692a56.177,56.177,0,0,0,5.691,5.427c-.226-.121-.451-.245-.673-.376C1406.957,245.8,1404.8,242.881,1402.763,240.088Zm2.62,1.277a48.276,48.276,0,0,1-10.177-17.355l-.006-.019a71.383,71.383,0,0,1-1.581-8.145q-.139-1.065-.232-2.139a34.608,34.608,0,0,1,1.224-10.661,35.016,35.016,0,0,1,10.119-15.975,52.7,52.7,0,0,1,16.478-10.287A36.385,36.385,0,0,1,1436.257,174a49.746,49.746,0,0,1,7.864,1.876,43.872,43.872,0,0,1,17.628,10.491,44.767,44.767,0,0,1,10.06,16.057,48.977,48.977,0,0,1,3.015,18.477,43.739,43.739,0,0,1-4.344,17.941,37.175,37.175,0,0,1-2.729,4.634q-.245.287-.491.573c-1.5,1.08-3.063,2.084-4.635,3.059a79.343,79.343,0,0,1-9.4,5.151,32.223,32.223,0,0,1-10.166,2.842,36.19,36.19,0,0,1-11.369-1.188c-3.85-.889-7.683-1.855-11.509-2.842-1.863-.48-3.782-.921-5.642-1.513A54.427,54.427,0,0,1,1405.383,241.365Zm-.667-55.765a43.548,43.548,0,0,1,14.47-9.5,38.358,38.358,0,0,1,5.8-1.77,45.95,45.95,0,0,0-4.813,1.688A54.456,54.456,0,0,0,1404.717,185.6Zm15.862,66.7c3.906,1,7.818,2.005,11.755,2.877a34.143,34.143,0,0,0,11.589.924,35.208,35.208,0,0,0,10.3-3.1,84.547,84.547,0,0,0,9.64-5.377l.25-.159a36.684,36.684,0,0,1-5.725,4.793,34.755,34.755,0,0,1-18.545,5.554,40.862,40.862,0,0,1-18.939-4.455q-1.674-.837-3.277-1.8C1418.612,251.814,1419.6,252.054,1420.579,252.3Zm55.358-31.9a49.852,49.852,0,0,0-3.32-18.948,45.681,45.681,0,0,0-10.544-16.324,44.3,44.3,0,0,0-15.55-9.586c1.272.271,2.542.555,3.8.9a24.513,24.513,0,0,1,5.1,1.939,25.678,25.678,0,0,1,4.36,3,60.244,60.244,0,0,1,13.272,15.549,41.348,41.348,0,0,1,5.926,20,32.5,32.5,0,0,1-1.5,10.56,37.859,37.859,0,0,1-4.646,9.319c-.209.315-.423.626-.638.936A45.629,45.629,0,0,0,1475.937,220.406Zm-35.209,38.874a39.61,39.61,0,0,1-18.7-2.6,42.862,42.862,0,0,1-14.475-9.475,15.23,15.23,0,0,0,2.409,1.635,24.425,24.425,0,0,0,4.079,1.7,49.552,49.552,0,0,0,6.956,4.086,41.784,41.784,0,0,0,19.572,4.263,38.452,38.452,0,0,0,5.816-.662A38.675,38.675,0,0,1,1440.728,259.281Zm39.333-34.926a30.388,30.388,0,0,1-8.531,16.173c.908-1.2,1.779-2.419,2.594-3.677a37.736,37.736,0,0,0,4.6-9.671,33.848,33.848,0,0,0,1.333-10.881,42.871,42.871,0,0,0-6.329-20.373,58.449,58.449,0,0,0-6.182-8.41,60.77,60.77,0,0,0-7.542-7.357,25.039,25.039,0,0,0-4.6-3.011,27.617,27.617,0,0,0-5.19-1.866c-1.855-.487-3.739-.868-5.616-1.258-1.972-.409-3.951-.795-5.946-1.081a45.078,45.078,0,0,0-6.352-.485,46.436,46.436,0,0,0-9.577.333l-.078.012a24.866,24.866,0,0,1,2.737-1.069,15.637,15.637,0,0,1,5.508-.7,48.492,48.492,0,0,1,5.85.78c1.727.294,3.452.595,5.171.935a61.879,61.879,0,0,1,10.233,2.8,34.069,34.069,0,0,1,9.192,5.281,55.542,55.542,0,0,1,7.4,7.346,52.265,52.265,0,0,1,9.942,17.239A37.621,37.621,0,0,1,1480.061,224.354Z" transform="translate(-1389.619 -169.913)" fill="#888787"/>
      <path id="Path_2295" data-name="Path 2295" d="M1509.391,311.912a4.4,4.4,0,0,0,2.1.5,3.351,3.351,0,0,0,2.593-.579,2.9,2.9,0,0,0,1.064-1.626,4.062,4.062,0,0,0,.429-1.873.481.481,0,0,0,.429-.523,4.667,4.667,0,0,0-2.414-3.829,4.494,4.494,0,0,0-6.553,4.179A4.678,4.678,0,0,0,1509.391,311.912Zm.958-4.484a1.314,1.314,0,0,1,.746-1.142.77.77,0,0,1,.1-.017,2.99,2.99,0,0,1,.641.108l.006,0a2.16,2.16,0,0,1,.6.418c.034.034.066.069.1.1a1.75,1.75,0,0,0-.457-.112,1.283,1.283,0,0,0-1.039.349,1.627,1.627,0,0,0-.392,1.173,1.835,1.835,0,0,0,.212.744,1.333,1.333,0,0,1-.149-.161A2.036,2.036,0,0,1,1510.35,307.428Zm1.429.6c.039-.108-.022.073.046-.1l.007-.017a.357.357,0,0,1,.226-.014.89.89,0,0,1,.581.512.528.528,0,0,0-.854-.132.462.462,0,0,1-.035.03A.614.614,0,0,1,1511.778,308.024Zm.059-.131c.027-.057.029-.028,0,0Zm-1.1,2.388a2.278,2.278,0,0,0,.639.173,2.1,2.1,0,0,1-1.842-.519,2.741,2.741,0,0,1-.293-2.073A2.73,2.73,0,0,0,1510.738,310.28Zm2.837.244a2.779,2.779,0,0,1-.534.385,3.092,3.092,0,0,0,.357-.3,2.883,2.883,0,0,0,.758-1.379,2.546,2.546,0,0,1-.055.627A2.722,2.722,0,0,1,1513.574,310.524Zm-1.8-5.967a2.973,2.973,0,0,1,1.044.266,4.04,4.04,0,0,0-.827-.133,3.6,3.6,0,0,0-2.576.9,3.091,3.091,0,0,0-.905.781,2.988,2.988,0,0,1,.327-.489A3.585,3.585,0,0,1,1511.774,304.557Z" transform="translate(-1481.193 -274.079)" fill="#888787"/>
      <path id="Path_2296" data-name="Path 2296" d="M1655.379,315.934a2.529,2.529,0,0,0,3.408-1.486,3.935,3.935,0,0,0,.949-1.91,4.5,4.5,0,0,0-2.414-4.711,3.545,3.545,0,0,0-2.219-.345,2.581,2.581,0,0,0-.49-.028,1.8,1.8,0,0,0-1.389.819,12.7,12.7,0,0,0-.894,1.348,4.38,4.38,0,0,0-.62,2.991A4.149,4.149,0,0,0,1655.379,315.934Zm.5-5.406c.031.01.063.02.094.034a.526.526,0,0,0-.24.444.555.555,0,0,0,.55.55l.061-.006a.361.361,0,0,1,.081.251s0,.028,0,.049c0-.011-.023.046-.013.043a.418.418,0,0,0-.032.048.414.414,0,0,1-.226.043.663.663,0,0,1-.542-.556A1.291,1.291,0,0,1,1655.881,310.528Zm-1.1-.288a1.958,1.958,0,0,0,.41,2.476,1.671,1.671,0,0,0,.423.235,1.411,1.411,0,0,1-.533-.062,1.5,1.5,0,0,1-.849-1.28,1.009,1.009,0,0,1,.548-1.368Zm3.058,3.368a2.723,2.723,0,0,0,.161-.313c-.009.062-.02.123-.033.184C1657.922,313.523,1657.88,313.566,1657.835,313.608Z" transform="translate(-1593.997 -277.168)" fill="#888787"/>
      <path id="Path_2297" data-name="Path 2297" d="M1507.884,426.774a13.745,13.745,0,0,0,4.831-.324c.775-.189,1.538-.422,2.3-.672q.9.016,1.792-.03c.306-.016.613-.039.918-.065.158-.007.315-.011.472-.02a23.681,23.681,0,0,0,11.053-2.96,26.109,26.109,0,0,0,4.459-3.462c.448-.353.89-.714,1.318-1.092q.471-.416.924-.851a.487.487,0,0,0,.15-.494q.61-.66,1.206-1.329.446-.5.888-1a.584.584,0,0,0,.092-.143c.566-.4.021-1.339-.564-.942-3.078,2.085-6.176,4.154-9.443,5.936a40.99,40.99,0,0,1-10.244,4.075,27.019,27.019,0,0,1-7.85.711c-.449-.1-.9-.207-1.339-.332a25.132,25.132,0,0,1-7.984-3.86,22.6,22.6,0,0,1-5.974-6.4q-.292-.475-.559-.964a.55.55,0,0,0-1.012.195l-.038-.078q-.23-.495-.43-1a.566.566,0,0,0-.677-.384.554.554,0,0,0-.384.677,20.725,20.725,0,0,0,1.058,2.276q-.475-.638-.941-1.281-.375-.519-.747-1.04a.566.566,0,0,0-.753-.2.554.554,0,0,0-.2.753l.283.394a.433.433,0,0,0,0,.292,21.918,21.918,0,0,0,9.838,11.176A20.578,20.578,0,0,0,1507.884,426.774Zm-6.133-2.945-.075-.039a18.9,18.9,0,0,0,4.824,1.472,34.012,34.012,0,0,0,4.239.425,11.07,11.07,0,0,1-1.378.081A17.912,17.912,0,0,1,1501.75,423.829Zm31.285-5.457a30.169,30.169,0,0,1-5.823,3.614,28.222,28.222,0,0,1-8.3,2.467l9.237-3.127a.572.572,0,0,0,.3-.842c2.12-1.135,4.169-2.4,6.184-3.71C1534.109,417.32,1533.579,417.854,1533.035,418.372Zm-33.758,1.711c.2.156.4.3.6.455-.357-.252-.708-.516-1.048-.793a20.392,20.392,0,0,1-3.849-4.136A23.719,23.719,0,0,0,1499.276,420.083Zm-3.839-1c.472.5.955.984,1.464,1.447q.442.4.906.782a21.224,21.224,0,0,1-1.891-1.718C1495.754,419.424,1495.595,419.253,1495.437,419.08Zm2.543,2.37-.09-.071Z" transform="translate(-1468.015 -358.159)" fill="#888787"/>
    </g>
  </g>
</svg>
