<svg xmlns="http://www.w3.org/2000/svg" width="62" height="61" viewBox="0 0 62 61">
  <g id="Group_1146" data-name="Group 1146" transform="translate(-185 -366)">
    <g id="Ellipse_49" data-name="Ellipse 49" transform="translate(185 366)" fill="none" stroke="#96bc5d" stroke-width="2">
      <ellipse cx="31" cy="30.5" rx="31" ry="30.5" stroke="none"/>
      <ellipse cx="31" cy="30.5" rx="30" ry="29.5" fill="none"/>
    </g>
    <g id="Group_894" data-name="Group 894" transform="translate(194.57 382.746)">
      <g id="Group_893" data-name="Group 893" transform="translate(0 0)">
        <path id="Path_2325" data-name="Path 2325" d="M2377.074,1741.693h1.149c.945,0,1.711-1.339,1.711-2.284v-.72a1.711,1.711,0,0,0-1.711-1.711h-2.6" transform="translate(-2337.329 -1715.676)" fill="none" stroke="#96bc5d" stroke-width="1.4"/>
        <path id="Path_2326" data-name="Path 2326" d="M2068.986,1736.977h-32.192a1.712,1.712,0,0,0-1.712,1.711v.72c0,.945.767,2.284,1.712,2.284h33.643" transform="translate(-2035.083 -1715.676)" fill="none" stroke="#96bc5d" stroke-width="1.4"/>
        <line id="Line_25" data-name="Line 25" x2="11.098" transform="translate(2.535 17.91)" fill="none" stroke="#96bc5d" stroke-width="1.4"/>
        <path id="Path_2327" data-name="Path 2327" d="M2336.58,1672.245" transform="translate(-2302.677 -1658.223)" fill="none" stroke="#96bc5d" stroke-width="1.4"/>
        <line id="Line_26" data-name="Line 26" x2="4.472" y2="12.766" transform="translate(33.821 8.535)" fill="none" stroke="#96bc5d" stroke-width="1.4"/>
        <line id="Line_27" data-name="Line 27" x1="4.314" y1="12.314" transform="translate(29.589 8.986)" fill="none" stroke="#96bc5d" stroke-width="1.4"/>
        <line id="Line_28" data-name="Line 28" x2="1.451" y2="4.716" transform="translate(38.293 21.301)" fill="none" stroke="#96bc5d" stroke-width="1.4"/>
        <line id="Line_29" data-name="Line 29" x2="1.451" y2="4.716" transform="translate(33.903 21.301)" fill="none" stroke="#96bc5d" stroke-width="1.4"/>
        <path id="Path_2328" data-name="Path 2328" d="M2353.878,1778.918h0a.971.971,0,0,1-.6,1.238l-.784.275a2.341,2.341,0,0,1-2.984-1.435l-.027-.077" transform="translate(-2314.134 -1752.901)" fill="none" stroke="#96bc5d" stroke-width="1.4"/>
        <path id="Path_2329" data-name="Path 2329" d="M2094.217,1778.918l-.027.077a2.341,2.341,0,0,1-2.984,1.435l-.784-.275a.971.971,0,0,1-.6-1.238h0" transform="translate(-2083.622 -1752.901)" fill="none" stroke="#96bc5d" stroke-width="1.4"/>
        <path id="Path_2330" data-name="Path 2330" d="M2190.125,1597.729l-7.988,1.921c-.94.1-4.485.18-4.385,1.12l0,.026a1.712,1.712,0,0,0,1.884,1.521l11.658-1.243" transform="translate(-2161.708 -1592.087)" fill="none" stroke="#96bc5d" stroke-width="1.4"/>
        <line id="Line_30" data-name="Line 30" y1="0.376" x2="3.528" transform="translate(29.122 5.191)" fill="none" stroke="#96bc5d" stroke-width="1.4"/>
        <line id="Line_31" data-name="Line 31" y1="0.075" x2="0.704" transform="translate(28.418 5.567)" fill="none" stroke="#96bc5d" stroke-width="1.4"/>
        <path id="Path_2331" data-name="Path 2331" d="M2335.854,1591.088l2.368-.874a22.012,22.012,0,0,1,4.811-1.105c.349-.045.577-.194.535-.591h0a1.712,1.712,0,0,0-1.883-1.521h0" transform="translate(-2302.032 -1582.553)" fill="none" stroke="#96bc5d" stroke-width="1.4"/>
        <line id="Line_32" data-name="Line 32" x1="7.001" y2="0.747" transform="translate(32.65 4.444)" fill="none" stroke="#96bc5d" stroke-width="1.4"/>
        <line id="Line_33" data-name="Line 33" x1="4.232" y2="0.451" transform="translate(29.589 8.535)" fill="none" stroke="#96bc5d" stroke-width="1.4"/>
        <path id="Path_2332" data-name="Path 2332" d="M2320.192,1552l-2.467-4.444-6.086,4.2" transform="translate(-2280.54 -1547.552)" fill="none" stroke="#96bc5d" stroke-width="1.4"/>
        <line id="Line_34" data-name="Line 34" x1="1.976" y2="1.365" transform="translate(29.122 4.203)" fill="none" stroke="#96bc5d" stroke-width="1.4"/>
        <line id="Line_35" data-name="Line 35" x2="2.018" y2="5.76" transform="translate(33.078 11.971)" fill="none" stroke="#96bc5d" stroke-width="1.4"/>
        <line id="Line_36" data-name="Line 36" x2="0.54" y2="1.541" transform="translate(35.618 19.381)" fill="none" stroke="#96bc5d" stroke-width="1.4"/>
        <line id="Line_37" data-name="Line 37" x2="5.745" transform="translate(15.584 17.91)" fill="none" stroke="#96bc5d" stroke-width="1.4"/>
        <line id="Line_38" data-name="Line 38" x2="6.461" transform="translate(4.815 15.77)" fill="none" stroke="#96bc5d" stroke-width="1.4"/>
        <line id="Line_39" data-name="Line 39" x2="5.675" transform="translate(16.427 15.77)" fill="none" stroke="#96bc5d" stroke-width="1.4"/>
        <line id="Line_40" data-name="Line 40" x2="5.621" transform="translate(9.355 13.63)" fill="none" stroke="#96bc5d" stroke-width="1.4"/>
        <line id="Line_41" data-name="Line 41" x2="2.873" transform="translate(18.456 13.63)" fill="none" stroke="#96bc5d" stroke-width="1.4"/>
        <line id="Line_42" data-name="Line 42" x2="2.336" transform="translate(22.816 17.91)" fill="none" stroke="#96bc5d" stroke-width="1.4"/>
      </g>
    </g>
  </g>
</svg>
