<svg xmlns="http://www.w3.org/2000/svg" width="13.978" height="13.348" viewBox="0 0 13.978 13.348">
  <path id="_9e698cf7de9b96b4358cef381816b4f9" data-name="9e698cf7de9b96b4358cef381816b4f9" d="M15.961,7.485a.7.7,0,0,0-.6-.468L11.39,6.438,9.61,2.83a.7.7,0,0,0-1.256,0l-1.78,3.6L2.6,7.017A.687.687,0,0,0,2.211,8.19l2.883,2.792-.7,3.964a.7.7,0,0,0,1.012.747l3.574-1.864,3.56,1.871a.649.649,0,0,0,.321.084.7.7,0,0,0,.691-.831l-.7-3.964L15.738,8.2A.7.7,0,0,0,15.961,7.485Zm-4.292,2.792a.7.7,0,0,0-.2.621l.5,2.924-2.624-1.4a.7.7,0,0,0-.656,0l-2.624,1.4.5-2.924a.7.7,0,0,0-.2-.621L4.27,8.183l2.938-.426a.7.7,0,0,0,.53-.384L8.982,4.714,10.294,7.38a.7.7,0,0,0,.53.384l2.938.426Z" transform="translate(-2.006 -2.436)" fill="#165735"/>
</svg>
