<svg id="Group_753" data-name="Group 753" xmlns="http://www.w3.org/2000/svg" width="38.218" height="37.213" viewBox="0 0 38.218 37.213">
  <path id="_9e698cf7de9b96b4358cef381816b4f9" data-name="9e698cf7de9b96b4358cef381816b4f9" d="M22.385,9.809a1.019,1.019,0,0,0-.877-.683l-5.8-.846-2.6-5.27a1.019,1.019,0,0,0-1.835,0L8.676,8.27l-5.8.856a1,1,0,0,0-.571,1.712l4.21,4.077L5.5,20.705A1.018,1.018,0,0,0,6.974,21.8l5.219-2.721,5.2,2.732a.948.948,0,0,0,.469.122,1.025,1.025,0,0,0,1.009-1.213L17.85,14.926l4.21-4.077A1.019,1.019,0,0,0,22.385,9.809Zm-6.269,4.077a1.019,1.019,0,0,0-.3.907l.734,4.271-3.832-2.039a1.019,1.019,0,0,0-.958,0L7.932,19.064l.734-4.271a1.019,1.019,0,0,0-.3-.907L5.313,10.829,9.6,10.207a1.019,1.019,0,0,0,.775-.561l1.814-3.883,1.916,3.894a1.019,1.019,0,0,0,.775.561l4.291.622Z" transform="translate(6.559 6.429)" fill="#fff"/>
  <g id="Ellipse_38" data-name="Ellipse 38" transform="translate(0)" fill="none" stroke="#fff" stroke-width="2">
    <ellipse cx="19.109" cy="18.606" rx="19.109" ry="18.606" stroke="none"/>
    <ellipse cx="19.109" cy="18.606" rx="18.109" ry="17.606" fill="none"/>
  </g>
</svg>
