<svg xmlns="http://www.w3.org/2000/svg" width="22.849" height="22.849" viewBox="0 0 22.849 22.849">
  <g id="Group_1177" data-name="Group 1177" transform="translate(-326.651 -24.151)">
    <path id="Path_2004" data-name="Path 2004" d="M61.92,102.591a10.925,10.925,0,1,0,10.925,10.925A10.937,10.937,0,0,0,61.92,102.591Zm0,21.121a10.2,10.2,0,1,1,10.2-10.2A10.208,10.208,0,0,1,61.92,123.712Z" transform="translate(276.156 -77.94)" fill="none" stroke="#fff" stroke-width="1"/>
    <path id="_9e698cf7de9b96b4358cef381816b4f9" data-name="9e698cf7de9b96b4358cef381816b4f9" d="M14.328,6.894a.616.616,0,0,0-.53-.413L10.292,5.97,8.72,2.784a.616.616,0,0,0-1.109,0L6.039,5.964l-3.507.518a.607.607,0,0,0-.345,1.035L4.733,9.982l-.616,3.5a.616.616,0,0,0,.894.659L8.165,12.5l3.143,1.652a.573.573,0,0,0,.283.074.62.62,0,0,0,.61-.733l-.616-3.5,2.545-2.465A.616.616,0,0,0,14.328,6.894Zm-3.79,2.465a.616.616,0,0,0-.179.548L10.8,12.49,8.486,11.257a.616.616,0,0,0-.579,0L5.589,12.49l.444-2.582a.616.616,0,0,0-.179-.548L4.005,7.51,6.6,7.135A.616.616,0,0,0,7.068,6.8l1.1-2.348L9.324,6.8a.616.616,0,0,0,.468.339l2.595.376Z" transform="translate(329.897 26.924)" fill="#fff"/>
  </g>
</svg>
